<svg version="1.1" xmlns="http://www.w3.org/2000/svg" xmlns:xlink="http://www.w3.org/1999/xlink" x="0px" y="0px"
	 viewBox="0 0 504.32 504.32" style="enable-background:new 0 0 504.32 504.32;" xml:space="preserve">
<path style="fill:#FFD0A1;" d="M174.922,284.16L157.856,47.787c0-18.773,11.947-34.133,30.72-34.133
	c18.773,0,27.307,14.507,29.013,34.133l25.6,187.733l8.533-196.267c5.12-19.627,11.947-34.133,30.72-34.133
	s29.013,15.36,29.013,34.133v187.733L346.443,61.44c4.267-16.213,14.507-30.72,29.013-30.72c13.653,0,24.747,12.8,21.333,34.133
	l-25.6,170.667l51.2-119.467c8.533-17.067,17.067-29.867,30.72-25.6c12.8,3.413,14.507,13.653,11.947,25.6
	c0,0-24.747,110.933-33.28,162.133c-8.533,51.2-8.533,145.067-34.133,221.867h-204.8c-17.067-85.333-85.333-196.267-128-238.933
	c-8.533-8.533-23.893-25.6-23.893-25.6c-2.56-3.413-2.56-7.68,0.853-11.947l4.267-4.267c13.653-13.653,52.053-13.653,65.707,0
	L174.922,284.16z"/>
<path style="fill:#51565F;" d="M396.789,504.32h-204.8c-2.56,0-4.267-1.707-4.267-4.267
	c-17.067-85.333-85.333-194.56-127.147-236.373c-8.533-8.533-23.04-24.747-23.893-25.6c-4.267-5.973-3.413-11.947,0.853-17.067
	l4.267-4.267c15.36-15.36,56.32-15.36,71.68,0l32.427,32.427c1.707,1.707,1.707,4.267,0,5.973s-4.267,1.707-5.973,0l-32.427-32.427
	c-11.947-11.947-47.787-11.947-59.733,0l-4.267,4.267c-2.56,2.56-1.707,4.267-0.853,5.973l0,0c0,0,15.36,16.213,23.04,24.747
	c41.813,41.813,110.08,151.893,128.853,238.08h197.973C409.589,443.733,414.709,384,418.976,335.36
	c1.707-22.187,3.413-41.813,6.827-58.027c8.533-50.347,33.28-161.28,33.28-162.133c3.413-15.36-2.56-18.773-8.533-21.333
	c-9.387-2.56-16.213,5.973-25.6,23.893l-50.347,119.467c-0.853,1.707-3.413,3.413-5.12,2.56c-1.707-0.853-3.413-2.56-3.413-5.12
	L391.669,64c1.707-10.24,0-17.92-4.267-23.893c-3.413-3.413-7.68-5.973-11.947-5.973c-12.8,0-21.333,14.507-24.747,27.307
	l-35.84,165.547c-0.853,2.56-2.56,3.413-4.267,3.413c-2.56,0-3.413-1.707-3.413-4.267V38.4c0-9.387-2.56-17.92-7.68-23.04
	c-4.267-4.267-10.24-6.827-17.067-6.827c-13.653,0-21.333,8.533-26.453,30.72l-8.533,195.413c0,2.56-1.707,4.267-4.267,4.267
	s-4.267-1.707-4.267-3.413l-25.6-187.733c-2.56-20.48-10.24-30.72-24.747-30.72c-15.36,0-26.453,11.947-26.453,29.867l17.067,230.4
	c0,2.56-1.707,4.267-4.267,4.267c-2.56,0-4.267-1.707-4.267-4.267l-17.067-230.4c0-22.187,14.507-38.4,34.987-38.4
	c18.773,0,30.72,13.653,33.28,37.547l18.773,140.8l6.827-148.48v-0.853C251.723,18.773,260.256,0,282.443,0
	c9.387,0,17.067,3.413,23.04,9.387c6.827,6.827,10.24,17.067,10.24,29.013v147.627L343.03,59.733
	c5.12-20.48,17.92-34.133,33.28-34.133c7.68,0,14.507,3.413,18.773,8.533c5.973,7.68,8.533,17.92,6.827,30.72L381.43,202.24
	l37.547-88.747c7.68-14.507,17.067-33.28,35.84-28.16c13.653,4.267,17.92,14.507,14.507,30.72c0,0.853-24.747,110.933-33.28,161.28
	c-2.56,15.36-4.267,34.987-5.973,57.173c-4.267,49.493-10.24,111.787-28.16,165.547C400.202,503.467,398.496,504.32,396.789,504.32z
	"/>
</svg>
