<svg version="1.1" xmlns="http://www.w3.org/2000/svg" xmlns:xlink="http://www.w3.org/1999/xlink" x="0px" y="0px"
	 viewBox="0 0 503.467 503.467" style="enable-background:new 0 0 503.467 503.467;" xml:space="preserve">
<path style="fill:#FFD0A1;" d="M192.122,284.16L183.589,38.4c0-18.773,11.947-34.133,30.72-34.133s27.307,14.507,29.013,34.133
	l17.067,170.667L277.456,38.4c5.12-19.627,11.947-34.133,30.72-34.133c18.773,0,29.013,15.36,29.013,34.133l-8.533,170.667v17.067
	c0-18.773,15.36-34.133,34.133-34.133c18.773,0,34.133,15.36,34.133,34.133v25.6c0-13.653,11.947-25.6,25.6-25.6
	s25.6,12.8,25.6,25.6v110.933c0,68.267-25.6,76.8-34.133,136.533h-204.8c-17.067-85.333-85.333-196.267-128-238.933
	c-8.533-8.533-23.893-25.6-23.893-25.6c-2.56-3.413-2.56-7.68,0.853-11.947l4.267-4.267c13.653-13.653,52.053-13.653,65.707,0
	L192.122,284.16z"/>
<path style="fill:#51565F;" d="M413.989,503.467h-204.8c-1.707,0-3.413-1.707-4.267-3.413
	C187.856,414.72,119.589,304.64,77.776,263.68c-8.533-8.533-23.04-24.747-23.893-25.6c-4.267-5.973-3.413-11.947,0.853-17.067
	l4.267-4.267c15.36-15.36,56.32-15.36,71.68,0l32.427,32.427c1.707,1.707,1.707,4.267,0,5.973c-1.707,1.707-4.267,1.707-5.973,0
	l-32.427-32.427c-11.947-11.947-47.787-11.947-59.733,0l-4.267,4.267c-2.56,2.56-1.707,4.267,0,5.973l0,0
	c0,0,15.36,16.213,23.04,24.747c41.813,41.813,110.08,151.893,128.853,238.08h197.973c4.267-23.893,10.24-40.107,17.067-55.467
	c8.533-20.48,16.213-39.253,16.213-76.8V252.587c0-11.093-10.24-21.333-21.333-21.333c-11.093,0-21.333,10.24-21.333,21.333
	c0,2.56-1.707,4.267-4.267,4.267s-4.267-1.707-4.267-4.267v-25.6c0-16.213-13.653-29.867-29.867-29.867
	c-16.213,0-29.867,13.653-29.867,29.867c0,2.56-1.707,4.267-4.267,4.267s-4.267-1.707-4.267-4.267V209.92l8.533-170.667
	c0-9.387-2.56-17.92-7.68-23.04c-4.267-4.267-10.24-6.827-17.067-6.827c-13.653,0-21.333,8.533-26.453,30.72L264.656,209.92
	c0,2.56-1.707,4.267-4.267,4.267s-4.267-1.707-4.267-4.267L239.056,39.253c-2.56-20.48-10.24-29.867-24.747-29.867
	c-15.36,0-26.453,11.947-26.453,29.867l8.533,238.933c0,2.56-1.707,4.267-4.267,4.267s-4.267-1.707-4.267-4.267l-8.533-238.933
	c0-22.187,14.507-38.4,34.987-38.4c18.773,0,30.72,13.653,33.28,37.547l12.8,128l12.8-128c5.12-18.773,12.8-38.4,34.987-38.4
	c9.387,0,17.067,3.413,23.04,9.387c6.827,6.827,10.24,17.067,10.24,29.013l-8.533,162.987c6.827-8.533,17.92-13.653,29.867-13.653
	c21.333,0,38.4,17.067,38.4,38.4v5.12c5.12-5.973,12.8-9.387,21.333-9.387c15.36,0,29.867,14.507,29.867,29.867v110.933
	c0,39.253-8.533,59.733-17.067,80.213c-6.827,15.36-13.653,31.573-17.067,56.32C418.256,501.76,415.696,503.467,413.989,503.467z"/>
</svg>